HIERARCHY
ROOT Hips
{
	OFFSET -0.179506 -22.333345 2.821913
	CHANNELS 6 Xposition Yposition Zposition Zrotation Yrotation Xrotation 
	JOINT LeftUpLeg
	{
		OFFSET 6.951974 -9.140623 -0.681533
		CHANNELS 3 Zrotation Yrotation Xrotation
		JOINT LeftLeg
		{
			OFFSET 3.427654 -37.519855 -0.449580
			CHANNELS 3 Zrotation Yrotation Xrotation
			JOINT LeftFoot
			{
				OFFSET -1.359570 -39.796059 -4.369333
				CHANNELS 3 Zrotation Yrotation Xrotation
				JOINT LeftToe
				{
					OFFSET 2.635814 -5.579078 11.928840
					CHANNELS 3 Zrotation Yrotation Xrotation
					End Site
					{
						OFFSET 0.000000 0.000000 0.000000
					}
				}
			}
		}
	}
	JOINT RightUpLeg
	{
		OFFSET -6.767048 -9.052170 -0.431982
		CHANNELS 3 Zrotation Yrotation Xrotation
		JOINT RightLeg
		{
			OFFSET -3.829005 -38.256897 -0.885003
			CHANNELS 3 Zrotation Yrotation Xrotation
			JOINT RightFoot
			{
				OFFSET 1.577377 -39.841461 -4.231180
				CHANNELS 3 Zrotation Yrotation Xrotation
				JOINT RightToe
				{
					OFFSET -2.537174 -4.814398 12.334795
					CHANNELS 3 Zrotation Yrotation Xrotation
					End Site
					{
						OFFSET 0.000000 0.000000 0.000000
					}
				}
			}
		}
	}
	JOINT Spine
	{
		OFFSET -0.253288 10.896323 -2.669631
		CHANNELS 3 Zrotation Yrotation Xrotation
		JOINT Spine1
		{
			OFFSET 0.548704 13.518043 0.109247
			CHANNELS 3 Zrotation Yrotation Xrotation
			JOINT Spine2
			{
				OFFSET 0.145701 5.292222 2.542457
				CHANNELS 3 Zrotation Yrotation Xrotation
				JOINT Neck
				{
					OFFSET -0.277840 21.387037 -4.285703
					CHANNELS 3 Zrotation Yrotation Xrotation
					JOINT Head
					{
						OFFSET 0.515184 6.496960 5.134897
						CHANNELS 3 Zrotation Yrotation Xrotation
						End Site
						{
							OFFSET 0.000000 0.000000 0.000000
						}
					}
				}
				JOINT LeftShoulder
				{
					OFFSET 7.884473 12.174932 -3.408961
					CHANNELS 3 Zrotation Yrotation Xrotation
					JOINT LeftArm
					{
						OFFSET 9.097692 3.046888 -0.886815
						CHANNELS 3 Zrotation Yrotation Xrotation
						JOINT LeftForeArm
						{
							OFFSET 25.961220 -1.277207 -2.745643
							CHANNELS 3 Zrotation Yrotation Xrotation
							JOINT LeftHand
							{
								OFFSET 24.923361 0.898606 -0.117091
								CHANNELS 3 Zrotation Yrotation Xrotation
								End Site
								{
									OFFSET 0.000000 0.000000 0.000000
								}
							}
						}
					}
				}
				JOINT RightShoulder
				{
					OFFSET -8.175920 11.883285 -3.861528
					CHANNELS 3 Zrotation Yrotation Xrotation
					JOINT RightArm
					{
						OFFSET -9.601238 3.255117 -0.914307
						CHANNELS 3 Zrotation Yrotation Xrotation
						JOINT RightForeArm
						{
							OFFSET -25.374195 -1.332924 -2.140099
							CHANNELS 3 Zrotation Yrotation Xrotation
							JOINT RightHand
							{
								OFFSET -25.529810 0.777228 -0.555919
								CHANNELS 3 Zrotation Yrotation Xrotation
								End Site
								{
									OFFSET 0.000000 0.000000 0.000000
								}
							}
						}
					}
				}
			}
		}
	}
}
MOTION
Frames: 5
Frame Time: 0.033333
-0.179506 70.816696 2.821913 155.945409 73.471671 -135.685232 9.953690 8.895179 2.327555 -1.012591 8.870522 -0.481847 -6.617458 10.803609 12.323303 -1.319778 -0.077425 0.069262 -5.274741 -12.138636 1.087106 2.720079 -16.016465 8.859447 6.107780 -8.555833 7.432562 2.085734 -0.466047 1.242756 -1.118992 -0.203824 5.508804 -0.130182 -3.921126 -1.846251 2.363111 -0.252876 3.612762 -7.673956 9.039785 12.539572 1.109232 5.562280 -11.605840 5.426409 -14.088870 -8.790779 -35.823501 -36.957512 5.260739 113.200855 -83.985115 -95.626335 38.707822 -18.310756 -9.860287 -4.992738 8.060715 -1.251905 46.469959 12.087860 7.702482 -149.643235 70.741893 -138.392086 -41.785111 7.016713 -23.838909 
-0.010402 70.629616 1.998621 157.204042 74.342588 -134.089406 9.735418 8.432265 1.386151 -0.916089 8.957016 0.756678 -6.722164 11.045936 12.736945 -1.428845 -0.125822 0.072796 -5.433520 -12.255393 0.750216 2.639176 -16.234212 8.803743 5.953069 -9.071860 8.168333 1.988576 -0.338652 1.137767 -0.958094 -0.227004 5.699684 -0.201290 -3.646713 -2.488480 2.384699 -0.249547 4.035854 -7.911552 8.860505 12.318594 1.160879 6.402523 -12.028336 4.286690 -12.539171 -7.829512 -33.020551 -34.453797 4.077249 138.657395 -82.567999 -122.816108 39.551459 -18.134755 -11.351112 -4.321631 6.463740 -0.433535 44.840527 9.469603 7.358024 -153.786096 69.447986 -143.628565 -41.890552 8.003961 -23.497571 
0.186490 70.474632 1.059395 158.169052 75.453733 -132.783102 9.948247 8.461067 0.210367 -0.941417 9.133090 2.322797 -6.785498 10.782414 12.717403 -1.417011 -0.207498 0.238473 -5.728084 -12.149985 0.455500 2.784791 -15.670300 8.261957 5.539202 -9.839647 9.158040 2.103121 -0.080790 0.821019 -0.896440 -0.251313 5.909703 -0.190399 -3.341875 -2.977476 2.347475 -0.377408 4.809708 -8.419106 8.674056 11.729034 1.228657 7.497181 -12.973744 2.067954 -9.415717 -6.232513 -28.942790 -28.879756 2.174811 148.384233 -79.607818 -134.778878 41.600832 -17.926137 -12.350730 -2.956979 4.545857 0.791422 42.799813 5.787730 6.626770 -156.726819 67.663765 -148.343024 -42.545122 9.267878 -22.346497 
0.407942 70.311005 0.018670 161.306820 76.343173 -129.021801 9.901820 7.900726 -0.463702 -0.784915 8.239152 2.738922 -6.658680 10.946201 12.670885 -1.603228 -0.163024 0.306870 -5.967377 -12.343676 0.386433 2.935643 -15.519272 7.815170 5.826511 -9.992073 9.659486 2.062996 0.059666 0.791530 -0.539495 -0.178460 5.579631 -0.344152 -3.093287 -3.203595 2.317805 -0.295667 5.469603 -8.743609 8.336414 10.958995 1.272137 8.166233 -13.218283 0.148186 -6.727231 -4.761511 -24.978002 -23.165243 1.120609 156.719241 -76.686280 -145.933523 43.268651 -17.851137 -14.171167 -1.259454 2.348241 2.037678 39.327519 1.958942 6.064009 -159.220180 66.299686 -152.949008 -43.305897 11.441885 -21.157539 
0.618674 70.037712 -1.105282 164.236294 77.172978 -125.396064 10.112032 7.478221 -1.719817 -0.666658 7.606789 4.013484 -6.522447 11.151669 11.979094 -1.690278 -0.257943 0.423494 -6.052073 -12.191665 0.091307 2.811626 -14.756683 7.418755 5.534451 -10.856383 9.633320 2.141523 0.336708 0.463752 -0.541663 -0.088303 5.470818 -0.262190 -2.696234 -3.318523 2.279077 -0.338621 6.072552 -8.889510 8.207393 10.444331 1.474390 8.557574 -13.510296 -2.391482 -3.258043 -2.959014 -20.908172 -16.458539 0.992068 161.348873 -73.734978 -153.593679 46.247287 -17.680056 -14.665635 0.774398 -0.367550 2.993842 35.978474 -2.336774 6.000818 -161.213036 64.784113 -157.274063 -45.012461 13.617463 -18.830855 
